<?xml version="1.0" standalone="no"?>
<!DOCTYPE svg PUBLIC "-//W3C//DTD SVG 20010904//EN"
 "http://www.w3.org/TR/2001/REC-SVG-20010904/DTD/svg10.dtd">
<svg version="1.0" xmlns="http://www.w3.org/2000/svg"
 width="300.000000pt" height="300.000000pt" viewBox="0 0 300.000000 300.000000"
 preserveAspectRatio="xMidYMid meet">
<metadata>
Created by potrace 1.10, written by Peter Selinger 2001-2011
</metadata>
<g transform="translate(0.000000,300.000000) scale(0.100000,-0.100000)"
fill="#000000" stroke="none">
<path d="M1380 2532 c-89 -23 -145 -59 -220 -138 -72 -77 -102 -137 -124 -244
-9 -41 -20 -91 -26 -110 -16 -55 -12 -120 11 -166 l20 -42 -33 -44 c-18 -24
-48 -77 -66 -118 -39 -89 -53 -116 -109 -207 -80 -130 -122 -325 -94 -430 20
-72 58 -76 124 -15 15 14 27 23 27 21 0 -3 -7 -56 -15 -118 -21 -159 -7 -226
71 -332 19 -26 34 -53 34 -61 0 -21 38 -67 73 -88 l30 -18 -40 -11 c-21 -6
-52 -24 -68 -41 -27 -28 -34 -30 -109 -32 l-81 -1 75 -8 c179 -20 180 -20 180
-40 0 -15 -10 -19 -67 -22 -38 -2 -23 -2 32 -1 55 2 145 4 200 5 l100 2 -85 6
c-94 7 -88 17 18 27 66 7 101 18 113 36 4 6 60 7 138 2 108 -6 129 -9 120 -20
-6 -8 -8 -21 -5 -30 5 -14 1 -16 -25 -10 -17 3 -66 7 -108 8 l-76 2 80 6 80 6
-85 1 c-47 1 -123 -2 -170 -5 -79 -7 -70 -8 136 -21 167 -10 227 -10 243 -2
17 9 21 9 21 -2 0 -17 38 -67 50 -67 5 0 21 11 37 24 15 12 34 22 41 20 7 -1
8 0 2 3 -8 3 -7 9 0 18 10 12 17 10 46 -6 37 -20 144 -27 144 -9 0 5 -14 7
-32 3 -23 -4 -30 -2 -23 5 6 6 26 12 45 15 l35 4 -35 2 c-31 1 -37 6 -51 40
l-17 39 27 8 c26 7 127 14 236 15 l60 1 -50 7 c-49 7 -50 8 -17 16 17 4 32 9
32 12 0 2 -15 17 -34 33 -50 44 -62 80 -41 121 51 98 77 248 57 323 -10 36
-10 38 10 33 61 -16 76 38 59 207 -14 132 -49 268 -88 336 -14 25 -32 76 -40
114 -16 76 -66 184 -108 234 -25 30 -26 35 -16 82 49 227 -61 495 -241 586
-100 51 -288 67 -408 36z m181 -12 c24 -1 68 -6 96 -12 29 -5 54 -8 55 -7 5 3
88 -41 88 -47 0 -3 -5 -2 -12 2 -7 4 -8 3 -4 -4 4 -6 13 -9 20 -6 21 8 113
-90 145 -154 39 -78 59 -152 65 -247 3 -53 2 -66 -3 -40 -7 33 -8 26 -7 -36 1
-60 -3 -81 -17 -96 -21 -24 -22 -37 -3 -30 8 3 22 -3 31 -13 14 -16 15 -23 6
-34 -7 -8 -20 -13 -29 -12 -16 3 -23 23 -24 76 0 25 0 24 -15 -5 -9 -16 -24
-40 -35 -52 l-20 -21 28 -36 c33 -40 37 -42 54 -21 10 12 9 16 -2 20 -8 3 -15
12 -15 20 0 20 2 19 22 -11 12 -18 13 -29 6 -38 -6 -7 -7 -16 -3 -21 4 -4 -3
-5 -15 -2 -13 3 -26 1 -29 -4 -3 -5 -10 -6 -16 -3 -7 4 -8 2 -4 -5 4 -6 12 -9
17 -6 5 4 9 2 9 -4 0 -14 -18 -23 -25 -12 -3 6 -13 7 -22 4 -13 -5 -13 -3 2
20 9 15 22 24 28 20 6 -4 1 8 -11 25 -13 17 -27 34 -32 37 -5 3 3 27 19 53 33
54 46 122 31 171 -8 27 -6 38 5 51 8 9 15 20 15 25 0 5 -7 0 -15 -11 -17 -22
-20 -12 -4 18 8 15 8 19 0 14 -7 -4 -11 1 -11 13 0 12 -4 21 -8 21 -9 0 -40
84 -32 86 3 0 -1 8 -9 17 -7 9 -16 15 -20 13 -4 -3 -12 4 -19 14 -10 16 -9 21
8 30 11 6 20 8 20 4 0 -3 6 -1 13 5 8 6 18 7 22 3 5 -4 5 -1 1 6 -4 7 -11 10
-16 7 -5 -3 -11 3 -14 12 -7 22 -4 39 7 35 5 -1 5 3 2 9 -5 8 -10 8 -18 0 -13
-13 -30 -15 -22 -2 3 5 0 13 -6 17 -8 5 -9 3 -4 -6 11 -17 -34 -3 -60 20 -11
9 -27 20 -35 24 -8 4 -3 -2 13 -14 41 -33 32 -45 -10 -13 l-38 27 24 -26 c12
-15 20 -31 17 -36 -6 -10 25 -11 34 -2 3 3 19 3 35 -1 23 -5 25 -7 8 -8 -12 0
-25 -6 -28 -11 -4 -6 -15 -8 -26 -5 -22 7 -89 -12 -89 -25 0 -5 -7 -7 -16 -3
-12 4 -13 8 -3 14 10 6 10 11 1 22 -14 16 -4 31 12 18 7 -6 20 -4 35 3 15 9
20 16 12 20 -6 4 -11 2 -11 -5 0 -7 -9 -5 -22 7 -22 19 -23 19 -8 -1 14 -19
14 -19 -2 -6 -13 9 -18 10 -18 2 0 -7 -5 -9 -11 -6 -6 5 -3 13 10 22 12 8 26
11 33 7 7 -4 8 -3 4 4 -4 7 3 17 19 24 18 8 22 14 13 19 -7 5 -13 14 -13 21 0
7 -9 13 -20 13 -11 0 -27 4 -35 9 -12 8 -13 7 -4 -5 6 -8 10 -22 9 -32 -2 -9
1 -15 5 -12 5 3 11 2 14 -3 3 -5 -8 -16 -24 -26 -25 -14 -29 -15 -24 -2 3 9
11 13 17 9 6 -4 7 -1 1 8 -5 8 -9 17 -10 22 -1 4 -2 10 -3 13 0 3 -13 -4 -27
-15 -15 -11 -30 -19 -34 -16 -3 2 -7 -2 -7 -11 0 -9 7 -12 17 -9 12 4 16 0 15
-17 -1 -13 -5 -22 -8 -20 -4 1 -12 2 -18 2 -5 0 -8 4 -4 9 3 5 1 12 -4 15 -5
4 -8 12 -7 19 3 20 17 38 26 32 4 -3 13 2 19 9 8 10 9 16 1 21 -6 3 -8 10 -6
14 3 4 -2 8 -10 8 -10 0 -11 -4 -4 -11 10 -10 -14 -46 -33 -46 -6 0 -2 9 7 19
10 10 13 22 8 25 -5 3 -17 -3 -27 -14 -10 -11 -22 -17 -27 -14 -5 3 -1 15 9
27 10 11 12 17 6 13 -8 -4 -13 -2 -14 6 0 10 -2 10 -6 0 -6 -14 -79 -52 -87
-45 -3 3 5 14 17 25 l22 19 -23 -11 c-17 -8 -27 -8 -37 0 -8 7 -15 7 -19 1 -4
-5 3 -16 14 -24 11 -7 17 -17 14 -20 -4 -4 3 -5 15 -2 22 4 30 -18 11 -30 -5
-3 -10 -1 -10 6 0 6 -10 0 -21 -15 -12 -15 -24 -25 -27 -22 -3 3 3 16 14 28
19 22 19 22 0 8 -18 -14 -19 -13 -13 3 4 10 3 16 -2 12 -5 -3 -12 -1 -16 4 -3
6 -13 7 -23 4 -13 -5 -15 -4 -7 8 6 8 -2 2 -16 -15 -15 -17 -31 -26 -38 -22
-6 4 -8 12 -5 18 10 15 -30 -8 -46 -26 -7 -9 -10 -16 -6 -16 4 0 -1 -12 -11
-27 -17 -26 -17 -27 0 -14 16 12 22 9 18 -12 -1 -5 3 -6 9 -2 8 5 7 11 -1 21
-7 9 -8 14 -1 14 12 0 44 -41 38 -48 -2 -2 -19 -6 -36 -8 -23 -4 -30 -2 -25 7
5 7 3 10 -6 7 -8 -3 -13 -10 -12 -16 1 -6 -10 -15 -25 -20 -39 -14 -85 -60
-78 -78 3 -8 2 -12 -4 -9 -6 3 -10 1 -10 -6 0 -7 -2 -10 -5 -7 -7 7 30 93 56
129 11 16 25 28 32 26 7 -1 11 3 10 10 -5 21 68 82 136 115 57 27 185 60 202
52 3 -2 25 -4 50 -4z m-49 -42 c-8 -8 -8 -15 -1 -24 6 -7 8 -18 4 -25 -6 -8
-9 -8 -15 1 -5 8 -9 7 -13 -5 -4 -9 -3 -13 3 -10 15 9 13 3 -20 -56 -20 -36
-29 -46 -27 -30 1 13 -3 26 -9 28 -8 3 -9 -8 -1 -42 11 -47 21 -56 31 -29 5
14 9 13 24 -7 18 -21 50 -19 36 2 -3 5 1 20 9 33 15 23 41 27 66 11 9 -5 12
-4 8 1 -3 6 5 11 18 12 34 2 40 -14 13 -34 -13 -9 -16 -14 -6 -11 9 3 19 3 22
0 9 -10 -66 -33 -91 -28 -12 2 -27 -3 -34 -11 -10 -13 -15 -12 -35 1 -14 9
-24 11 -24 5 0 -6 -4 -8 -10 -5 -5 3 -2 -8 8 -24 16 -29 17 -29 28 -9 8 14 13
17 18 9 4 -7 2 -19 -5 -27 -6 -8 -10 -17 -7 -19 3 -3 17 13 32 35 14 22 29 40
32 40 6 0 -2 -15 -31 -55 -13 -16 -33 -52 -47 -80 -22 -44 -23 -53 -12 -80 7
-16 13 -37 14 -46 0 -15 -3 -15 -35 -1 -26 12 -35 23 -36 42 l-2 25 -4 -25
c-5 -24 -19 -40 -36 -40 -11 0 3 54 18 64 10 7 9 18 -1 53 -7 24 -11 50 -7 59
3 8 -3 22 -13 30 -11 9 -13 13 -6 9 16 -8 15 5 -3 29 -15 19 -21 46 -9 33 4
-3 15 -2 25 4 24 12 25 1 2 -18 -16 -13 -15 -13 6 -2 23 11 24 11 18 -25 -3
-22 -2 -34 4 -31 5 4 9 13 9 21 0 8 5 14 11 14 6 0 1 12 -10 26 -11 15 -18 30
-15 35 3 5 1 9 -5 9 -6 0 -8 6 -5 13 3 8 -2 14 -11 14 -9 0 -14 -6 -11 -12 8
-22 -29 -11 -59 17 -16 15 -31 25 -34 22 -3 -3 1 -9 9 -14 8 -5 11 -12 8 -15
-4 -4 -20 8 -37 27 -25 28 -28 35 -16 47 12 12 17 12 30 1 21 -18 -3 -34 -25
-17 -13 10 -13 10 -2 -5 8 -9 20 -14 28 -11 9 3 29 -7 48 -26 28 -27 34 -30
40 -16 3 9 2 14 -3 11 -5 -3 -14 1 -21 9 -11 13 -10 14 3 10 8 -4 18 -2 21 3
3 6 16 8 28 4 14 -3 19 -1 14 6 -5 9 8 24 24 28 22 4 39 18 33 27 -3 6 7 21
23 34 31 24 46 31 26 11z m47 -15 c-8 -9 -14 -24 -14 -34 0 -10 -9 -25 -20
-34 -19 -16 -19 -16 3 -5 23 11 46 5 37 -10 -3 -5 3 -14 14 -20 23 -12 35 1
36 39 0 13 6 26 13 29 11 3 12 0 3 -15 -7 -15 -6 -25 5 -41 17 -24 20 -23 -58
-26 -44 -1 -86 -44 -65 -66 9 -10 9 -12 -3 -8 -8 3 -15 11 -15 19 0 23 -18 29
-32 11 -20 -26 -15 -6 7 30 19 32 48 43 62 23 5 -6 8 -5 8 3 0 7 4 11 8 8 5
-3 9 1 9 9 0 8 -5 11 -11 7 -37 -23 -53 -3 -25 32 11 14 17 26 13 26 -4 0 1 9
11 20 22 24 33 27 14 3z m-191 -72 c-9 -15 -19 -17 -60 -12 -15 2 0 35 23 47
20 11 26 11 36 -3 9 -11 9 -20 1 -32z m489 -71 c-2 -11 -9 -26 -16 -33 -13
-13 -72 -17 -64 -4 2 4 -7 5 -20 1 -14 -3 -34 -1 -44 4 -16 10 -15 12 10 21
38 15 42 14 27 -4 -17 -20 -13 -19 44 10 60 30 67 31 63 5z m-524 -10 c8 -11
17 -17 21 -13 10 11 36 12 36 2 0 -9 -10 -12 -43 -12 -11 0 -16 -5 -13 -13 3
-8 1 -14 -4 -14 -14 0 -21 18 -10 25 5 3 10 11 10 18 0 6 -6 3 -13 -8 -10 -13
-16 -15 -21 -6 -4 6 -16 9 -27 6 -28 -9 -23 2 9 19 35 20 38 20 55 -4z m-17
-63 c12 -14 25 -23 30 -19 4 4 4 2 1 -4 -4 -7 0 -25 8 -40 32 -63 7 -205 -41
-232 -11 -6 -7 -17 22 -50 53 -62 65 -66 123 -42 27 12 59 33 72 46 12 13 32
24 43 25 14 0 10 4 -13 10 -19 6 -35 18 -38 30 -3 10 -10 19 -15 19 -6 0 -8 6
-5 14 3 8 2 28 -3 45 -14 50 35 154 85 181 13 7 22 16 20 21 -3 4 4 5 15 2 11
-3 20 0 20 6 0 5 7 8 15 5 8 -4 15 -2 15 3 0 16 122 -7 153 -29 34 -25 61 -76
77 -150 7 -32 17 -55 21 -52 5 3 6 -2 2 -11 -4 -13 -8 -14 -14 -4 -4 8 -11 10
-15 6 -4 -3 -1 -14 7 -23 7 -9 14 -21 15 -28 1 -6 6 -20 10 -30 5 -14 4 -17
-5 -11 -10 6 -11 3 -1 -15 8 -15 8 -20 1 -16 -7 5 -11 -2 -11 -16 0 -23 -34
-88 -46 -88 -4 0 0 8 7 18 13 15 12 16 -3 3 -10 -7 -15 -17 -12 -22 3 -5 -3
-12 -13 -16 -10 -4 -24 -13 -31 -20 -7 -7 -20 -13 -27 -13 -25 0 -65 -23 -65
-37 0 -17 24 -17 40 2 6 8 22 17 33 21 12 3 38 18 57 32 19 14 32 22 28 17 -4
-4 4 -21 17 -37 l25 -30 -21 -29 c-22 -31 -17 -58 7 -38 8 6 14 9 14 5 0 -16
-3 -21 -11 -19 -5 2 -9 -2 -9 -8 0 -5 -6 -7 -12 -3 -10 6 -9 3 0 -8 14 -17 42
-14 42 4 0 6 7 5 15 -2 14 -11 14 -15 1 -35 -19 -29 -9 -40 16 -18 10 9 18 12
18 8 0 -5 11 2 25 15 14 13 25 20 25 16 0 -5 7 -3 15 4 10 8 15 9 15 1 0 -12
-80 -67 -93 -63 -5 1 -6 -1 -3 -6 3 -5 2 -22 -3 -37 l-7 -29 -24 49 c-12 28
-34 62 -48 78 -14 15 -22 27 -17 27 5 0 -4 14 -20 30 -31 32 -25 42 8 13 19
-17 19 -17 12 7 -7 23 -7 24 11 10 17 -14 18 -14 6 2 -15 18 -1 34 21 23 6 -4
1 2 -13 13 -26 22 -48 19 -30 -3 17 -21 -8 -30 -29 -11 -17 15 -19 15 -31 1
-7 -9 -9 -15 -3 -13 6 2 11 -1 11 -5 0 -5 13 -22 28 -38 30 -32 16 -41 -15
-10 -11 11 -22 17 -24 15 -3 -3 -8 0 -13 7 -5 8 -3 10 7 4 12 -7 12 -5 1 6 -8
9 -15 10 -20 4 -5 -8 -23 -7 -57 1 -48 11 -49 12 -25 22 14 6 20 11 13 11 -18
1 -63 -21 -63 -31 0 -4 11 -8 25 -8 15 0 39 -7 55 -15 17 -9 33 -16 37 -16 27
-2 79 -38 95 -66 21 -35 31 -43 21 -16 -4 10 -2 14 4 10 6 -4 21 -31 33 -62
12 -30 25 -53 29 -51 4 3 8 -13 8 -35 1 -25 -2 -37 -9 -33 -7 4 -7 1 0 -12 20
-38 71 -234 66 -251 -4 -13 -3 -15 4 -5 7 11 10 10 16 -3 9 -26 7 -42 -4 -25
-11 17 -13 9 -4 -14 5 -12 10 -14 19 -6 9 7 19 0 38 -29 14 -21 44 -52 65 -67
34 -25 41 -36 47 -79 10 -67 10 -79 -3 -162 -13 -78 -30 -125 -43 -117 -5 3
-6 -2 -3 -10 3 -8 -15 -45 -40 -84 -25 -38 -46 -72 -46 -76 0 -10 27 -36 36
-36 4 0 -1 9 -10 19 -17 18 -16 21 11 51 l28 31 31 -44 31 -44 -49 -12 c-60
-16 -108 -20 -108 -9 0 4 5 8 11 8 5 0 8 4 5 9 -3 5 -28 -3 -54 -17 -31 -16
-55 -23 -67 -18 -22 8 -8 26 23 29 11 0 19 4 16 8 -2 4 4 13 12 20 9 8 25 33
35 57 11 25 23 40 29 37 12 -8 3 -46 -14 -57 -8 -5 -7 -8 2 -8 18 0 36 50 23
63 -7 7 -7 15 2 25 6 8 12 20 13 26 0 6 2 20 3 31 2 16 4 14 15 -10 l14 -30
-3 40 c-3 39 9 160 21 220 4 17 3 27 0 24 -4 -3 -10 -26 -15 -50 -7 -40 -8
-37 -10 36 -4 144 -5 155 -13 142 -5 -7 -8 -1 -9 18 0 17 -4 39 -8 50 -8 20
-8 20 -15 -1 -3 -12 -2 -33 3 -47 24 -62 35 -333 15 -359 -6 -7 -18 -34 -28
-61 -10 -27 -22 -44 -28 -41 -6 4 -9 1 -6 -7 3 -8 -1 -20 -9 -27 -7 -7 -13
-22 -13 -32 0 -10 -9 -21 -20 -25 -11 -3 -19 -11 -17 -17 4 -18 -39 -24 -110
-15 -42 6 -101 -5 -112 -20 -3 -5 -23 -16 -43 -27 -50 -25 -191 -26 -219 0
-10 9 -19 13 -19 9 0 -4 -10 0 -22 11 l-23 19 19 -22 c10 -13 22 -20 27 -18 4
3 10 1 14 -5 13 -22 -110 -2 -143 23 -27 21 -25 -6 2 -28 33 -26 30 -28 -58
-40 -36 -5 -46 -4 -41 6 4 6 4 10 -1 7 -70 -34 -127 -58 -135 -58 -18 0 1 44
29 67 33 28 24 29 -30 3 -23 -11 -53 -20 -67 -20 l-26 0 24 19 c14 11 50 27
82 36 46 14 67 16 115 7 33 -5 61 -8 63 -7 12 12 -19 25 -82 35 -82 14 -118
26 -129 43 -11 18 -10 29 3 21 8 -4 8 0 0 15 -13 24 -17 25 -27 9 -4 -7 -3 -8
4 -4 7 4 12 3 12 -3 0 -5 -4 -12 -9 -15 -10 -7 -31 46 -31 79 0 14 -8 25 -20
28 -11 3 -23 13 -27 24 -4 10 -13 24 -20 31 -7 7 -13 22 -13 33 0 10 -5 19
-11 19 -6 0 -9 9 -6 20 3 11 1 20 -4 20 -4 0 -7 6 -5 13 3 6 7 26 10 42 5 22
4 26 -4 15 -7 -11 -9 -4 -8 27 1 25 5 40 11 36 6 -4 8 0 4 10 -3 9 -1 63 5
119 5 57 10 119 9 138 0 19 6 81 14 137 8 55 13 107 10 115 -3 8 1 33 9 56 9
23 13 48 11 55 -9 23 55 118 101 150 25 18 53 33 62 35 73 12 106 13 132 4 54
-19 31 2 -34 32 -36 15 -80 43 -100 61 -19 18 -39 29 -42 26 -4 -3 -4 2 -1 11
4 13 2 15 -10 11 -13 -5 -15 -2 -10 11 4 9 3 15 -2 12 -4 -3 -14 14 -21 37
-17 59 -19 86 -6 95 28 18 36 39 26 70 -6 22 -5 30 2 26 6 -4 8 1 3 16 -5 15
-4 20 4 16 15 -10 14 7 -1 23 -10 11 -10 13 0 7 7 -4 12 -2 12 5 0 7 10 24 23
37 12 14 16 22 9 17 -11 -6 -12 -3 -3 13 6 12 17 24 24 28 7 5 6 0 -3 -11 -14
-17 -14 -17 7 -5 12 8 20 17 17 21 -8 13 20 18 80 15 49 -3 64 -8 82 -29z
m148 -273 c73 -41 70 -45 -39 -59 -41 -6 -55 -3 -73 12 l-23 18 43 28 c23 15
43 27 44 27 1 0 22 -12 48 -26z m26 -69 c0 -2 -19 -14 -41 -26 -37 -18 -43
-19 -57 -6 -13 14 -11 16 24 22 21 4 44 8 49 10 16 5 25 5 25 0z m-371 -138
c20 -16 40 -26 49 -22 14 5 14 3 -1 -12 -9 -10 -28 -20 -42 -21 -31 -2 -121
-68 -130 -94 -8 -22 -45 -24 -45 -3 0 22 22 65 31 60 4 -3 11 0 15 6 4 8 3 9
-4 5 -15 -9 -15 -1 -2 23 12 23 56 22 54 -1 -1 -10 4 -14 12 -11 14 5 20 34 7
32 -22 -4 -24 3 -7 23 12 14 13 18 3 10 -9 -6 -20 -8 -24 -4 -5 4 -5 2 -2 -4
4 -7 0 -14 -8 -18 -21 -8 -19 3 12 47 21 31 29 36 37 25 6 -7 26 -26 45 -41z
m844 41 c-8 -11 -9 -28 -4 -69 0 -5 6 -7 13 -3 7 5 8 3 3 -6 -6 -10 -11 -9
-21 4 -7 10 -20 23 -30 30 -16 12 -16 14 4 34 24 24 51 31 35 10z m83 -35 c-3
-8 -2 -11 4 -8 12 7 73 -122 66 -141 -3 -8 -1 -14 4 -14 6 0 10 -11 10 -25 0
-30 -1 -30 -39 -7 -24 15 -27 21 -19 36 8 15 8 17 -2 11 -10 -6 -12 -4 -7 9 5
11 3 15 -5 10 -7 -5 -9 -2 -5 8 3 9 -1 25 -9 37 -8 12 -12 26 -8 33 4 6 3 8
-3 5 -6 -4 -18 4 -27 18 -18 27 -21 39 -7 31 5 -3 14 1 21 9 15 18 34 9 26
-12z m-20 -70 c4 -10 6 -24 5 -32 -1 -7 2 -11 6 -8 11 7 11 -38 1 -49 -8 -7
-12 9 -9 35 2 7 -3 10 -9 6 -6 -4 -8 -15 -5 -24 3 -11 -3 -25 -15 -36 -18 -16
-30 -8 -13 9 4 3 8 16 10 29 5 30 -16 9 -22 -23 -3 -13 -12 -31 -21 -39 -16
-15 -16 -14 -1 8 15 23 15 26 0 43 -13 14 -13 21 -4 32 7 8 10 21 6 28 -4 7 2
4 12 -7 19 -21 36 -25 49 -12 4 4 0 7 -9 7 -9 0 -17 5 -17 11 0 5 6 7 13 3 9
-6 9 -5 0 8 -7 8 -10 18 -6 21 11 11 20 8 29 -10z m-1074 -161 c-6 -15 -14
-47 -17 -72 -4 -25 -14 -56 -22 -69 -11 -17 -12 -26 -3 -35 8 -8 10 -6 5 9 -6
18 -5 18 5 2 6 -9 8 -22 4 -28 -7 -12 -11 -41 -20 -167 l-7 -92 -49 -46 c-52
-49 -69 -52 -79 -13 -17 60 -5 233 15 226 6 -2 13 -12 14 -22 2 -9 0 -15 -5
-12 -5 3 -9 -3 -8 -13 2 -33 12 -32 19 1 4 23 1 38 -10 50 -16 17 -16 22 1 64
24 64 81 156 90 147 5 -4 5 -2 1 5 -4 7 10 35 31 64 37 52 54 52 35 1z m1131
23 c37 -3 75 -56 112 -159 44 -122 63 -233 61 -352 -1 -82 -3 -89 -22 -92 -23
-3 -109 56 -109 75 0 6 -4 15 -9 20 -6 5 -6 2 -1 -7 5 -9 0 -8 -14 4 -50 45
-136 280 -114 314 11 18 10 68 -1 80 -4 3 -4 -11 -2 -31 3 -21 1 -37 -5 -37
-16 0 -3 127 15 155 19 29 33 31 64 9 12 -8 22 -12 22 -8 0 5 5 3 12 -4 7 -7
17 -12 22 -12 6 0 -1 8 -14 17 -24 17 -28 19 -50 22 -5 0 -10 6 -10 12 0 5 6
7 12 3 7 -5 21 -9 31 -9z m-206 -1166 c29 -11 63 -66 63 -102 l0 -27 -37 15
c-21 9 -43 23 -50 32 -11 14 -18 10 -57 -33 -52 -56 -65 -51 -66 26 l-1 45
-22 -27 c-22 -27 -77 -40 -77 -19 0 17 89 90 117 97 15 3 33 7 38 9 12 4 61
-4 92 -16z"/>
<path d="M1910 2255 c-10 -12 -16 -13 -29 -3 -9 7 -7 3 4 -11 11 -13 20 -33
20 -45 0 -11 7 -22 15 -22 8 -1 21 -2 28 -3 8 -1 10 -6 6 -13 -5 -10 -3 -10 7
0 12 11 9 18 -20 42 -30 27 -32 35 -8 31 10 -1 9 27 -2 33 -5 3 -14 -1 -21 -9z"/>
<path d="M1447 2403 c-4 -3 -1 -13 6 -21 11 -13 9 -14 -13 -2 l-25 13 19 -22
20 -22 12 23 c16 29 2 52 -19 31z"/>
<path d="M1615 2320 c-4 -6 -10 -8 -15 -5 -4 3 -13 -2 -20 -10 -14 -17 -14
-17 18 -20 12 -1 20 0 17 3 -3 3 2 14 12 24 9 10 11 18 5 18 -6 0 -14 -5 -17
-10z"/>
<path d="M1443 2200 c4 -19 2 -38 -4 -46 -8 -10 -9 -14 0 -14 6 0 11 5 11 12
0 6 6 3 14 -7 13 -18 14 -18 25 3 14 26 14 29 -2 35 -10 4 -13 -2 -10 -21 4
-21 2 -24 -6 -12 -6 8 -11 27 -11 42 0 15 -5 30 -12 34 -8 5 -9 -2 -5 -26z"/>
<path d="M1407 2123 c13 -30 20 -38 26 -27 5 9 -1 23 -18 41 l-25 28 17 -42z"/>
<path d="M1196 2061 c-14 -15 -15 -24 -6 -40 6 -12 19 -21 30 -21 11 0 24 9
30 21 9 16 8 25 -6 40 -9 10 -20 19 -24 19 -4 0 -15 -9 -24 -19z"/>
<path d="M1650 2045 c-28 -34 24 -80 55 -48 18 18 19 35 3 51 -16 16 -43 15
-58 -3z"/>
<path d="M1528 1683 c-10 -2 -18 -8 -18 -13 0 -5 12 -5 28 -1 15 4 33 6 40 4
6 -3 12 0 12 6 0 11 -29 13 -62 4z"/>
<path d="M1320 1671 c0 -12 29 -23 41 -15 16 10 9 20 -16 22 -14 1 -25 -2 -25
-7z"/>
<path d="M1091 1616 c-7 -8 -10 -19 -7 -25 9 -14 41 -5 38 10 -6 24 -18 30
-31 15z"/>
<path d="M1330 1348 c1 -14 24 -48 33 -48 3 0 2 12 -2 27 -7 28 -31 45 -31 21z"/>
<path d="M1935 1321 c5 -15 3 -21 -3 -17 -6 3 -3 -17 6 -45 12 -39 18 -46 23
-32 11 27 10 40 -2 23 -8 -11 -9 -8 -5 15 5 23 4 27 -5 15 -8 -12 -10 -10 -5
10 3 14 1 32 -5 40 -8 11 -9 9 -4 -9z"/>
<path d="M2140 891 c-13 -26 -13 -48 1 -57 7 -4 10 -1 7 7 -3 8 -1 26 3 42 9
32 4 35 -11 8z"/>
<path d="M2120 800 c-8 -5 -10 -10 -5 -10 15 0 11 -50 -5 -60 -10 -6 -9 -9 2
-16 8 -5 18 -16 21 -24 4 -8 4 1 1 20 -6 33 -5 34 10 15 14 -18 15 -18 16 -2
0 10 -6 20 -13 23 -9 3 -12 16 -9 34 5 33 4 34 -18 20z"/>
<path d="M1661 431 c-11 -20 2 -40 14 -21 4 6 12 7 18 3 7 -4 5 2 -3 13 -8 10
-15 21 -16 22 -1 2 -7 -5 -13 -17z"/>
<path d="M2180 1340 c-4 -55 1 -82 15 -96 7 -8 11 -22 8 -33 -3 -10 0 -22 5
-25 19 -12 21 10 5 55 -8 24 -19 64 -23 89 -7 44 -8 44 -10 10z"/>
<path d="M2290 390 c10 -6 2 -10 -30 -13 -26 -2 -24 -3 5 -1 28 2 73 8 100 13
l50 8 -70 2 c-46 0 -65 -2 -55 -9z"/>
<path d="M2170 356 c24 -15 22 -15 -45 -16 -38 -1 -88 -5 -110 -9 -26 -6 -4
-7 65 -4 58 3 114 9 125 14 11 5 47 10 80 12 52 3 49 3 -22 5 -45 1 -90 5
-100 8 -10 3 -7 -2 7 -10z"/>
<path d="M2018 353 c23 -2 61 -2 85 0 23 2 4 4 -43 4 -47 0 -66 -2 -42 -4z"/>
<path d="M688 323 c18 -2 45 -2 60 0 15 2 0 4 -33 4 -33 0 -45 -2 -27 -4z"/>
<path d="M800 310 c22 -7 20 -8 -14 -9 -22 -1 -37 -3 -34 -6 3 -3 50 -2 104 1
111 8 103 23 -11 22 -50 0 -63 -2 -45 -8z"/>
<path d="M2050 310 c0 -6 21 -8 58 -4 77 9 78 14 4 14 -35 0 -62 -4 -62 -10z"/>
<path d="M893 283 c26 -2 67 -2 90 0 23 2 2 3 -48 3 -49 0 -68 -1 -42 -3z"/>
<path d="M1493 253 c20 -2 54 -2 75 0 20 2 3 4 -38 4 -41 0 -58 -2 -37 -4z"/>
</g>
</svg>
